<svg width="152" height="54" viewBox="0 0 152 54" fill="none" xmlns="http://www.w3.org/2000/svg">
<g filter="url(#filter0_d_36_3861)">
<path d="M44.6096 26.3521L26.0573 12.4358C25.0371 11.6708 23.5812 12.3987 23.5812 13.6735V20.0043L32.043 26.3514C32.8683 26.9706 32.8683 28.2084 32.043 28.8275L23.5806 35.1753V41.5061C23.5806 42.7815 25.0364 43.5095 26.0567 42.7444L44.609 28.8282C45.435 28.209 45.435 26.9706 44.6096 26.3521Z" fill="#591F17"/>
<path d="M23.5767 19.9999L13.478 12.4251C12.4571 11.6595 11 12.388 11 13.6641V41.5174C11 42.7935 12.4571 43.522 13.478 42.7564L23.5761 35.1816V19.9999H23.5767Z" fill="#591F17"/>
<path d="M46.8406 24.1575L28.2739 10.2306C27.253 9.46493 25.7959 10.1935 25.7959 11.4696V17.8054L34.264 24.1569C35.09 24.7767 35.09 26.0151 34.264 26.6349L25.7959 32.9871V39.3229C25.7959 40.5989 27.253 41.3275 28.2739 40.5619L46.84 26.6355C47.6666 26.0157 47.6666 24.7767 46.8406 24.1575Z" fill="url(#paint0_linear_36_3861)"/>
<path d="M25.7958 17.8054L15.6977 10.2306C14.6769 9.46493 13.2197 10.1935 13.2197 11.4696V39.3222C13.2197 40.5983 14.6769 41.3269 15.6977 40.5612L25.7958 32.9864V17.8054Z" fill="#AE0404"/>
</g>
<path d="M51.3121 18.653H55.6989L59.0032 32.2976L62.393 18.767L67.7198 18.3682L71.3089 32.6964L74.6417 18.653H78.7152L73.5878 37.6244H68.6028L64.9282 22.6125L61.1111 37.6244H56.1831L51.3121 18.653ZM87.2159 38.0517C84.8421 38.0517 82.9715 37.368 81.6042 36.0007C80.2559 34.6334 79.5817 32.7344 79.5817 30.3036C79.5817 28.7274 79.8761 27.3601 80.4648 26.2017C81.0535 25.0243 81.8796 24.1222 82.943 23.4956C84.0255 22.8689 85.2883 22.5555 86.7316 22.5555C88.8585 22.5555 90.4917 23.2392 91.6311 24.6065C92.7705 25.9738 93.3403 27.9488 93.3403 30.5315C93.3403 30.9683 93.3308 31.2911 93.3118 31.5H83.6267C83.8166 32.5065 84.2534 33.2756 84.937 33.8073C85.6207 34.3201 86.5417 34.5764 87.7001 34.5764C88.4028 34.5764 89.1339 34.491 89.8935 34.3201C90.6531 34.1302 91.3178 33.8833 91.8875 33.5794L92.5427 36.7983C91.783 37.1971 90.938 37.501 90.0075 37.7098C89.0959 37.9377 88.1654 38.0517 87.2159 38.0517ZM89.4947 28.4805C89.4377 27.6639 89.1529 27.0183 88.6401 26.5435C88.1274 26.0498 87.4438 25.8029 86.5892 25.8029C85.7726 25.8029 85.0984 26.0403 84.5667 26.515C84.054 26.9898 83.7311 27.645 83.5982 28.4805H89.4947ZM101.729 38.0517C100.209 38.0517 98.4148 37.8238 96.3448 37.368V16.83H100.304V24.3786C101.425 23.1632 102.802 22.5555 104.435 22.5555C106.106 22.5555 107.416 23.1917 108.366 24.4641C109.315 25.7174 109.79 27.474 109.79 29.7339C109.79 32.4305 109.097 34.491 107.711 35.9153C106.324 37.3395 104.33 38.0517 101.729 38.0517ZM102.156 34.548C103.333 34.548 104.226 34.1587 104.834 33.38C105.46 32.6014 105.774 31.462 105.774 29.9618C105.774 28.7274 105.565 27.7684 105.147 27.0847C104.748 26.4011 104.178 26.0593 103.438 26.0593C102.83 26.0593 102.26 26.2777 101.729 26.7144C101.197 27.1322 100.722 27.7494 100.304 28.566V34.2916C100.893 34.4625 101.51 34.548 102.156 34.548Z" fill="white" fill-opacity="0.07"/>
<path d="M116.973 22.2422H111.788V18.653H126.259V22.2422H121.131V37.6244H116.973V22.2422ZM128.271 18.653H132.829L137.329 33.1237L141.801 18.653H146.046L139.665 37.6244H134.68L128.271 18.653Z" fill="#FF6B59" fill-opacity="0.15"/>
<path d="M53.8184 18.0286H58.2052L61.5095 31.6732L64.8993 18.1426L70.2261 17.7438L73.8153 32.072L77.1481 18.0286H81.2215L76.0941 37H71.1091L67.4345 21.9881L63.6175 37H58.6895L53.8184 18.0286ZM89.7222 37.4273C87.3484 37.4273 85.4779 36.7436 84.1106 35.3763C82.7623 34.009 82.0881 32.11 82.0881 29.6792C82.0881 28.103 82.3824 26.7357 82.9711 25.5773C83.5598 24.3999 84.3859 23.4979 85.4494 22.8712C86.5318 22.2445 87.7947 21.9312 89.238 21.9312C91.3649 21.9312 92.9981 22.6148 94.1375 23.9821C95.2769 25.3494 95.8466 27.3244 95.8466 29.9071C95.8466 30.3439 95.8371 30.6667 95.8181 30.8756H86.133C86.3229 31.8821 86.7597 32.6512 87.4434 33.1829C88.127 33.6957 89.0481 33.952 90.2065 33.952C90.9091 33.952 91.6402 33.8666 92.3999 33.6957C93.1595 33.5058 93.8241 33.2589 94.3938 32.9551L95.049 36.1739C94.2894 36.5727 93.4443 36.8766 92.5138 37.0855C91.6023 37.3133 90.6717 37.4273 89.7222 37.4273ZM92.0011 27.8561C91.9441 27.0396 91.6592 26.3939 91.1465 25.9191C90.6338 25.4254 89.9501 25.1785 89.0955 25.1785C88.2789 25.1785 87.6048 25.4159 87.0731 25.8906C86.5603 26.3654 86.2375 27.0206 86.1046 27.8561H92.0011ZM104.235 37.4273C102.716 37.4273 100.921 37.1994 98.8512 36.7436V16.2056H102.811V23.7542C103.931 22.5388 105.308 21.9312 106.941 21.9312C108.612 21.9312 109.923 22.5673 110.872 23.8397C111.822 25.093 112.296 26.8497 112.296 29.1095C112.296 31.8061 111.603 33.8666 110.217 35.2909C108.831 36.7151 106.837 37.4273 104.235 37.4273ZM104.662 33.9236C105.84 33.9236 106.732 33.5343 107.34 32.7557C107.967 31.9771 108.28 30.8376 108.28 29.3374C108.28 28.103 108.071 27.144 107.653 26.4604C107.254 25.7767 106.685 25.4349 105.944 25.4349C105.336 25.4349 104.767 25.6533 104.235 26.09C103.703 26.5078 103.228 27.125 102.811 27.9416V33.6672C103.399 33.8381 104.017 33.9236 104.662 33.9236Z" fill="white"/>
<path d="M119.479 21.6178H114.295V18.0286H128.765V21.6178H123.638V37H119.479V21.6178ZM130.777 18.0286H135.335L139.836 32.4993L144.308 18.0286H148.552L142.171 37H137.186L130.777 18.0286Z" fill="#FF6B59"/>
<path d="M102.143 40.4805H103.157L103.806 42.8827L104.503 40.5017L105.623 40.4101L106.377 42.9532L107.039 40.4805H107.983L106.877 44.1085H105.792L105.045 41.4738L104.263 44.1085H103.2L102.143 40.4805ZM110.145 44.2141C109.558 44.2141 109.096 44.0451 108.758 43.7069C108.424 43.3688 108.257 42.8992 108.257 42.298C108.257 41.9082 108.33 41.5701 108.476 41.2836C108.621 40.9924 108.826 40.7694 109.089 40.6144C109.356 40.4594 109.669 40.3819 110.026 40.3819C110.552 40.3819 110.955 40.551 111.237 40.8891C111.519 41.2273 111.66 41.7157 111.66 42.3544C111.66 42.4624 111.658 42.5422 111.653 42.5939H109.258C109.305 42.8428 109.413 43.033 109.582 43.1645C109.751 43.2913 109.979 43.3547 110.265 43.3547C110.439 43.3547 110.62 43.3336 110.808 43.2913C110.995 43.2443 111.16 43.1833 111.301 43.1081L111.463 43.9042C111.275 44.0028 111.066 44.0779 110.836 44.1296C110.61 44.1859 110.38 44.2141 110.145 44.2141ZM110.709 41.8472C110.695 41.6452 110.624 41.4856 110.498 41.3681C110.371 41.246 110.202 41.185 109.99 41.185C109.788 41.185 109.622 41.2437 109.49 41.3611C109.363 41.4785 109.284 41.6405 109.251 41.8472H110.709ZM113.734 44.2141C113.359 44.2141 112.915 44.1578 112.403 44.0451V38.966H113.382V40.8328C113.659 40.5322 114 40.3819 114.404 40.3819C114.817 40.3819 115.141 40.5392 115.376 40.8539C115.611 41.1639 115.728 41.5983 115.728 42.1571C115.728 42.824 115.557 43.3336 115.214 43.6858C114.871 44.038 114.378 44.2141 113.734 44.2141ZM113.84 43.3477C114.131 43.3477 114.352 43.2514 114.502 43.0588C114.657 42.8663 114.735 42.5845 114.735 42.2135C114.735 41.9082 114.683 41.6711 114.58 41.502C114.481 41.3329 114.34 41.2484 114.157 41.2484C114.007 41.2484 113.866 41.3024 113.734 41.4104C113.603 41.5137 113.485 41.6664 113.382 41.8683V43.2843C113.528 43.3265 113.68 43.3477 113.84 43.3477ZM117.8 44.2141C117.462 44.2141 117.199 44.1296 117.011 43.9605C116.828 43.7868 116.736 43.5426 116.736 43.2279V41.3329H116.173V40.4805H116.736V39.7056C117.07 39.6493 117.399 39.607 117.723 39.5788V40.4805H118.638V41.3329H117.723V43.0447C117.723 43.1434 117.751 43.2185 117.807 43.2702C117.868 43.3218 117.953 43.3477 118.061 43.3477C118.192 43.3477 118.343 43.3171 118.512 43.2561L118.73 44.0028C118.429 44.1437 118.119 44.2141 117.8 44.2141ZM119.1 40.4946L120.185 40.396L120.988 43.0095L121.756 40.4805H122.82L121.545 44.1085H120.383L119.1 40.4946ZM124.369 42.5305V44.1085H123.376V38.9589H124.369V41.8049L125.503 40.4805H126.679L125.228 42.1078L126.757 44.0662L125.679 44.2141L124.369 42.5305ZM127.214 38.966H128.208V41.0089C128.353 40.7928 128.52 40.6355 128.708 40.5369C128.896 40.4336 129.112 40.3819 129.356 40.3819C129.746 40.3819 130.051 40.4993 130.272 40.7341C130.492 40.9643 130.603 41.286 130.603 41.6992V44.1085H129.609V41.8542C129.609 41.6664 129.562 41.5208 129.469 41.4175C129.375 41.3094 129.248 41.2554 129.088 41.2554C128.914 41.2554 128.748 41.3165 128.588 41.4386C128.433 41.556 128.306 41.7133 128.208 41.9106V44.1085H127.214V38.966ZM132.212 44.348C132.015 44.348 131.843 44.2752 131.698 44.1296C131.557 43.9887 131.486 43.8196 131.486 43.6224C131.486 43.4204 131.557 43.249 131.698 43.1081C131.843 42.9626 132.015 42.8898 132.212 42.8898C132.414 42.8898 132.585 42.9626 132.726 43.1081C132.867 43.249 132.938 43.4204 132.938 43.6224C132.938 43.8196 132.867 43.9887 132.726 44.1296C132.585 44.2752 132.414 44.348 132.212 44.348ZM135.544 44.2141C134.942 44.2141 134.475 44.0545 134.142 43.7351C133.813 43.4157 133.649 42.9649 133.649 42.3826C133.649 41.9881 133.726 41.6405 133.881 41.34C134.036 41.0347 134.254 40.7999 134.536 40.6355C134.818 40.4665 135.144 40.3819 135.515 40.3819C135.689 40.3819 135.87 40.4031 136.058 40.4453C136.25 40.4829 136.398 40.5275 136.502 40.5792L136.311 41.4175C136.203 41.3658 136.084 41.3259 135.952 41.2977C135.825 41.2648 135.706 41.2484 135.593 41.2484C135.302 41.2484 135.067 41.347 134.888 41.5443C134.715 41.7415 134.628 42.0022 134.628 42.3262C134.628 42.6549 134.717 42.9085 134.895 43.087C135.079 43.2655 135.337 43.3547 135.67 43.3547C135.891 43.3547 136.128 43.3124 136.382 43.2279L136.53 44.031C136.225 44.1531 135.896 44.2141 135.544 44.2141ZM138.88 44.2141C138.513 44.2141 138.189 44.1343 137.908 43.9746C137.631 43.8149 137.415 43.5919 137.26 43.3054C137.105 43.0142 137.027 42.6784 137.027 42.298C137.027 41.9176 137.102 41.5842 137.252 41.2977C137.407 41.0065 137.623 40.7811 137.901 40.6214C138.182 40.4618 138.506 40.3819 138.873 40.3819C139.239 40.3819 139.561 40.4618 139.838 40.6214C140.12 40.7764 140.336 40.9971 140.486 41.2836C140.641 41.5701 140.718 41.9012 140.718 42.2769C140.718 42.6573 140.641 42.9954 140.486 43.2913C140.336 43.5825 140.12 43.8102 139.838 43.9746C139.561 44.1343 139.241 44.2141 138.88 44.2141ZM138.873 43.3547C139.126 43.3547 139.328 43.2584 139.479 43.0659C139.634 42.8686 139.711 42.6103 139.711 42.291C139.711 41.9716 139.634 41.718 139.479 41.5302C139.328 41.3376 139.126 41.2413 138.873 41.2413C138.619 41.2413 138.415 41.3376 138.26 41.5302C138.11 41.718 138.034 41.9716 138.034 42.291C138.034 42.6103 138.11 42.8686 138.26 43.0659C138.415 43.2584 138.619 43.3547 138.873 43.3547ZM141.455 40.4805H142.427V41.0441C142.713 40.6026 143.101 40.3819 143.589 40.3819C143.866 40.3819 144.101 40.4477 144.294 40.5792C144.491 40.706 144.634 40.8891 144.723 41.1286C144.888 40.8703 145.071 40.6825 145.273 40.5651C145.479 40.443 145.714 40.3819 145.977 40.3819C146.367 40.3819 146.67 40.4993 146.886 40.7341C147.107 40.9643 147.217 41.286 147.217 41.6992V44.1085H146.224V41.8542C146.224 41.6664 146.177 41.5208 146.083 41.4175C145.994 41.3094 145.872 41.2554 145.717 41.2554C145.524 41.2554 145.346 41.3353 145.181 41.4949C145.017 41.6546 144.895 41.8589 144.815 42.1078V44.1085H143.822V41.8542C143.822 41.6711 143.775 41.5255 143.681 41.4175C143.587 41.3094 143.462 41.2554 143.307 41.2554C143.134 41.2554 142.969 41.3212 142.814 41.4527C142.664 41.5795 142.542 41.7603 142.448 41.9951V44.1085H141.455V40.4805Z" fill="white"/>
<defs>
<filter id="filter0_d_36_3861" x="0.604128" y="0.0420123" width="57.2517" height="53.9426" filterUnits="userSpaceOnUse" color-interpolation-filters="sRGB">
<feFlood flood-opacity="0" result="BackgroundImageFix"/>
<feColorMatrix in="SourceAlpha" type="matrix" values="0 0 0 0 0 0 0 0 0 0 0 0 0 0 0 0 0 0 127 0" result="hardAlpha"/>
<feOffset dy="0.519794"/>
<feGaussianBlur stdDeviation="5.19794"/>
<feComposite in2="hardAlpha" operator="out"/>
<feColorMatrix type="matrix" values="0 0 0 0 1 0 0 0 0 0.419608 0 0 0 0 0.34902 0 0 0 0.25 0"/>
<feBlend mode="normal" in2="BackgroundImageFix" result="effect1_dropShadow_36_3861"/>
<feBlend mode="normal" in="SourceGraphic" in2="effect1_dropShadow_36_3861" result="shape"/>
</filter>
<linearGradient id="paint0_linear_36_3861" x1="36.628" y1="9.91809" x2="36.628" y2="40.8744" gradientUnits="userSpaceOnUse">
<stop stop-color="#FF6B59"/>
<stop offset="1" stop-color="#FF6B59"/>
</linearGradient>
</defs>
</svg>
